# xmcd
#
# Track frame offsets:
# 150
# 25248
# 47198
# 76091
# 96086
# 122406
# 141954
# 180869
# 205696
# 225659
# 251654
# 272120
#
# Disc length: 4006 seconds
#
# Revision: 1
# Processed by: cddbd v1.4PL0 Copyright (c) Steve Scherf et al.
# Submitted via: CedeCatalogueitor 2.5 http://usuarios.lycos.es/kakasboy
#
DISCID=960fa40c
DTITLE=John Primer - It´s A Blues Life
DYEAR=1998
DGENRE=
TTITLE0=I´ve Been Abused
TTITLE1=Maggie
TTITLE2=Last Night
TTITLE3=Mama Talk To Your Daughter
TTITLE4=Party Girl
TTITLE5=Empty Arms
TTITLE6=Lonesome For Your Love
TTITLE7=Sweet As A Georgia Peach
TTITLE8=Every Time You Leave Me
TTITLE9=Can´t You See What You´re Doin´ To Me
TTITLE10=Give Me Back My Wig
TTITLE11=Rock Me
EXTD=
EXTT0=
EXTT1=
EXTT2=
EXTT3=
EXTT4=
EXTT5=
EXTT6=
EXTT7=
EXTT8=
EXTT9=
EXTT10=
EXTT11=
PLAYORDER=
